<svg xmlns="http://www.w3.org/2000/svg" width="250" height="250" fill="none" viewBox="0 0 250 250"><g clip-path="url(#a)"><path fill="#000" fill-rule="evenodd" d="M75.7 5q-1.4 1-1.2 6.8c.2 4 .6 5.3 2 6.6.8.8 1 1.3 1.8 4.5a156 156 0 0 1 1.6 66.6A458 458 0 0 0 73 171c.3 8.1.5 10.7 1.7 20.9 3.6 31 5.2 39 8.5 41.5q1.9 1.4 6 1.2c3-.2 3.1-.3 3-4.2 0-3.4-.5-7-3.6-25.5a231 231 0 0 1-4.2-49 244 244 0 0 1 3.7-48.3A433 433 0 0 0 92 31.4C91 20.5 89 14 85.4 10c-2.2-2.4-7-5.3-8.7-5.3q-.5 0-1 .4m27.6 6.8c-.9.8-1 1.7-1 5.7 0 4.4.6 6.7 2.2 9.1 1.9 2.7 2.5 5.9 2.8 14.4.4 11.2-1.3 25.2-4 33.3-1.8 5.7-2.3 8-2.4 11-.2 2.5-.1 3 .4 4.1q1 2.4 3.7 2.4c2.2 0 3.4-1 5.2-4q4.5-7.6 7.3-28.3c1-7.5 1.4-9.7 2.5-12 1-2.2 2-3.2 4-4.2 3.3-1.6 4.1-1.7 24.2-1.8 22-.2 25.6 0 29 1.7 2.3 1.3 3.2 3 4.3 8 1.5 7.2 1.8 12.9 2 35.2.2 23.2-.3 37-1.5 48.5-.6 6.5-1.2 8.3-3.9 12a91 91 0 0 1-9 10.3 72 72 0 0 0-20.5 31.4q-2.5 11.7 10 29c11.3 15.6 30 29.3 40 29.5q5.7 0 4.8-4.4-.6-3.2-4.3-6.8c-2.7-2.7-4.5-4-9.5-6.9a70 70 0 0 1-16.7-12.7c-7.4-7.7-11.5-16.3-10.9-22.8.5-5 4.8-13.3 10.8-20.8 1.2-1.4 4.6-5.2 7.8-8.4a122 122 0 0 0 7.1-7.8c4.5-6 6-12.3 6.8-28 .2-2.9.4-19.8.6-37.5s.4-34.2.5-36.6c.7-10.2 1.5-12.1 5.5-12.6 3.8-.5 5.4-1.2 6.2-2.8.7-1.4.8-7.7.1-9q-.8-1.8-5.6-2.3c-3-.4-18.8-.3-40.8.3-16.6.4-36.7.2-39.9-.4-3.9-.8-5-1.7-5.3-4.2-.4-3.5-7.4-10.8-11.4-12q-.5-.2-1.1.4M52.8 23.4q-3.7 2.2 3.1 10.4c2.8 3.4 4.1 7.6 4.6 14.6.6 9.4-.8 18-4.7 29.7-2 6-3 9.5-3.4 11.8-.3 2 .8 2.3 4.8 1.5 3.1-.7 4.5-1.4 6.2-3.2 4.5-4.8 6.6-14.7 7.3-34 .5-14.7 0-20.9-2.3-23.8a25 25 0 0 0-9-6.5c-2.2-.9-5.5-1.1-6.6-.5m74.4 33.2a6 6 0 0 0-2.7 3c-2 6-3.6 30.9-3.1 49.8.3 10.9.8 14 2.7 16 5 5.4 13.8 8.5 22.4 7.8 5.3-.4 9.3-2 13.2-5 7.5-6.1 9.2-12.6 10.4-40.2.4-7.7.4-19.3 0-22.2-.5-4.2-1.6-6-4.2-7.2-3-1.4-6.2.2-7.8 4-.6 1.3-1 3.8-1.7 8.6-.6 5.2-1.5 5.7-11 6.4-5.8.4-8.5.2-9.5-.5-1.3-1-1.4-1.7-1.7-7.4-.3-7.3-1.2-10.4-3.5-12.5-1.2-1.1-2-1.2-3.5-.6M146 87.9c5.9.3 8.2.8 9.3 2.2.8 1 1 2.2 1.4 6.7.6 6.8-.3 12.1-2.6 16.9q-3.5 7.1-9.6 7.6-5.1.5-7.4-3.8c-1.8-3.2-2.5-7.3-2.8-15.5-.2-8.5.4-12.8 2.2-13.8.9-.5 2.8-.7 4.7-.6zm-82.3 18c-2.9 1.3-5 4.5-8.7 13a83 83 0 0 0-7.3 28.4 318 318 0 0 0-.4 30.4c1 16 4 27.7 7.7 31.8 1.5 1.6 2.4 2 3.9 1.6 4.2-1.3 4.6-5.2 2.4-23.6-1.1-9.5-1.3-12.4-1.5-20-.4-16.6 1.7-33.6 5.7-44.5 2.8-8 3.4-10.6 2.9-13.8q-.4-2.9-1.9-3.5c-1-.6-1.2-.6-2.8.2m41.2.5c-3.1 1.6-5.8 8.2-7.1 17-1 6.7-1.2 10.4-1.3 22-.2 17 .7 31 2.7 40.6 1.3 6.7 5 15 8 18q3 3 5.8 0c2.4-2.4 2.3-6.5-.3-19.4a167 167 0 0 1-5.2-43.6c0-12.6.4-16.9 2.5-27.2 1.4-7 1.2-8-2.2-8-1.3 0-2 .2-3 .6" clip-rule="evenodd"/></g><defs><clipPath id="a"><path fill="#fff" d="M0 0h250v250H0z"/></clipPath></defs></svg>