<svg xmlns="http://www.w3.org/2000/svg" width="250" height="250" fill="none" viewBox="0 0 250 250"><g clip-path="url(#a)"><path fill="#000" fill-rule="evenodd" d="M107.7 5.9c-2.4 1.3-4 4-7.5 12l-4.3 9.7A86 86 0 0 0 89.8 56c.3 7.5 2 11.6 9.1 22.8 3.7 5.6 5.3 8.6 6 10.8.4 1.5.6 1.7 1.9 2.4 1.6.7 1.8 1.1 2 4 .3 2.3.6 3.2 1.6 4.6.8 1.3 1.8 4.8 3.2 11.4.9 4.4 1 4.8 1 11.7 0 6.2-.1 7.7-.7 10.8-2.2 12-6.8 26-17.3 53-2.5 6.4-3 7.8-3.4 12.9l-.7 4.5q-.1.5-1.2 1.3c-1.1.8-2.7 3.6-3.7 6.8a83 83 0 0 1-7 15.5c-2.5 4.2-3.7 9.4-2.7 11.8q1.4 3.5 6.3-3.3c6.9-9.3 17.9-31 22.4-44.3 1.2-3.7 1.4-4.4 1.4-7l.1-3.1a41.4 41.4 0 0 0 8-13c2.5-5.4 7.7-17 8.7-19.8 6.6-17.3 3.4-43.6-7.9-63.8-4.3-7.7-5.3-10-5.3-11.8 0-2.4 1.1-4.3 5-8C127.3 55.1 153 33 154.6 33c.6 0 .8 2.2 1 15.6.2 17.6.6 21.1 3 27.5 2.7 7.1 3.7 15.8 3.6 32.1 0 15-.4 19.7-3.8 42.2-5.8 37.8-6 39.5-5.8 41.3q.2 2.6 1.7 2.2c2-.5 5-7.1 8.7-18.5 3-9.6 4.8-17.1 5.8-25 .5-4 1.8-11.4 4.4-27 1.9-10.7 2.7-21 2.1-27.6-.5-6-1.2-9.1-3.8-17a132 132 0 0 1-7-28.3c-1-7.5-.2-15.4 1.8-20.7l3.1-7c1.5-3 2.3-5.2 2.2-5.5-.1-.4-.5-.4-2.8-.3-2.8.2-7.2 1.4-10.2 3A385 385 0 0 0 113 55.6a37 37 0 0 1-7.4 5.7q-2 1.1-3.1-1.2c-2.1-3.7-1.5-15.6 1.4-27.1.9-3.6 1.8-6.5 6.6-20.3 1.4-3.8 2.2-6.6 2-6.8-.3-.6-3.8-.7-4.9-.1" clip-rule="evenodd"/></g><defs><clipPath id="a"><path fill="#fff" d="M0 0h250v250H0z"/></clipPath></defs></svg>