<svg xmlns="http://www.w3.org/2000/svg" width="250" height="250" fill="none" viewBox="0 0 250 250"><path fill="#000" d="M55.2 24q12.8 0 20.4 4.3a14 14 0 0 1 7.6 13q0 8.6-6.3 8.6-6 0-17-9.4T48.9 27q0-3 6.3-3M168 57.8a520 520 0 0 0-61.8 9.9q-4.7 1-10.7 1-5.8 0-11.8-3.3-5.7-3.3-5.8-4.8t4.5-1.8q18-.7 62-6.9 44.1-6.3 53.4-8.3a75 75 0 0 1 17.6-2.3 38 38 0 0 1 16.2 3.8q8.4 3.5 8.4 6.8 0 3-5 4.9-4.7 1.5-13.3.7-8.7-1-22.8-1t-24.9.8a85 85 0 0 1 15.5 9.6q4.2 3.3 4.2 5.6t-.3 3.8q-1.5 6.4-1.6 35.6 0 29.2 3 59.5.7 8.1.7 15.5t-2.4 13.7q-2.1 6.6-7.8 14.5a64 64 0 0 1-7.4 9.4q-1.5 1.5-3.6 1.5-1.8 0-4-3.6-10.2-16.5-19.8-27.1-2.4-2.6-2.4-3.9t1-1.2 8.7 2q7.8 2 12.3 2t5.8-2.8q1.2-2.7 2-17.5 1-14.7 1.1-31 0-16.5-1-38.9a164 164 0 0 0-3.2-31.5q-2.1-8.8-6.8-14.7M28.5 76.6q6.5 0 14.9 2.3 8.6 2 11.5 7.1 3 4.8 2.9 10 0 7.2-6.3 7.3-6 0-16.8-10.7Q24 81.9 24 79.4q0-2.8 4.5-2.8m74 19q17.9.3 34.9-7.8a12 12 0 0 1 5.2-1q3.2 0 10.5 3.8t7.3 6.6q0 1.8-3.7 6a49 49 0 0 0-7 11 25 25 0 0 0-3.4 9.4q0 2.8 1.8 4.3t1.8 3-1.8 3.1q-1.5 1.6-15.4 2.8-14 1-22 .8l.2 4.6q0 2.5-1.3 4.8-1 2-2.9 2-1.5 0-3.4-2.8-1.7-2.7-2.6-7.6-5.5-31-10-41.4-.7-1.5-.7-3 0-2 2.9-1.9 2.9 0 9.6 3.4m7.1 35.1q12-1.5 16.8-2.5 5-1 6.5-3 1.5-2.3 3.2-9.2 1.5-7.1 1.5-12 0-5.3-6.8-4a173 173 0 0 1-25.6 2.3q1.8 14.4 4.4 28.4m-29.8-10.1a34 34 0 0 1-4 10.6q-3.9 8.2-12.3 29.5a484 484 0 0 0-12 34.8q-3 9-6 8.9t-9-10.2q-5.7-10.5-5.7-14t4.2-4.8q4.1-1.2 11.3-11.1T71.9 125q4.2-6.6 6.6-6.6 1.3 0 1.3 2"/></svg>