<svg xmlns="http://www.w3.org/2000/svg" width="250" height="250" fill="none" viewBox="0 0 250 250"><path fill="#000" fill-rule="evenodd" d="M98 23.9c-10.2 7.4-39.8 38.8-43.7 46.4-4.6 8.9-4.5 17.8.8 55.7 2.3 17 4.3 35.7 4.3 41.7 0 14.9 3.2 20.7 21.6 38.8 19.8 19.7 30.4 25.6 43.3 24.3 12.1-1.2 34.7-11.9 37.3-17.5 1.8-4 10-7.6 17.2-7.6 4.5 0 13.1-11.2 16.3-21 4.4-13.7 5.3-59.5 1.7-88.5-4.1-33.7-7.4-48.4-11.7-52-2-1.6-11.4-5.3-21-8.2l-36.8-11.1c-10.6-3.3-20-5.9-20.8-5.9-1 0-4.7 2.2-8.4 4.9m52.7 52.9c8 6 10.2 12.5 13.2 39.4 1.4 13 3.8 31.5 5.3 41.2l2.9 17.6-4.1 4.4c-5.7 6.1-31.7 18.1-41.4 19Q112 200 98.5 185.1c-9.8-10.7-12-18.2-15.8-54.7-3-27.7-3.2-42.7-.7-49.2C84.4 74.9 92.9 66 102.3 60L110 55l17.5 8.7c9.6 4.8 20 10.6 23.3 13m-43.5 9.8c-1.5 1.4-3.1 5-3.8 7.8-3.7 16.8 14.6 78.4 23.8 80.1q3 .7 6-6c4.3-9.9 4.3-58-.1-69.4-4.8-12.4-19.1-19.3-26-12.5" clip-rule="evenodd"/></svg>