<svg xmlns="http://www.w3.org/2000/svg" width="250" height="250" fill="none" viewBox="0 0 250 250"><path fill="#000" fill-rule="evenodd" d="M107.7 13c-14.2 1.2-20 2.8-27.4 7.6-10.7 7-19 22.3-21.8 40.1-3 19.4-4.5 46.3-4.5 82.8 0 38.7 0 39.4 3.5 53.8 2 8 4.3 16 5.3 17.8A46 46 0 0 0 78 229c7 3.2 25.2 8 33.6 8.7 10.3.9 34.9-1 44.9-3.6q23.7-6 32.8-32.4c5.3-15.8 6-28.4 5.6-100-.4-66.2-.4-66.2-3.3-71.4a34 34 0 0 0-19-14.3c-11.9-3.8-40.7-5.2-64.9-3.1M161 28.2c3.9 1 8 3 9.2 4.4q8.4 10 8.5 55.3c0 21.4 0 21.6-2.8 22.3-7.2 1.7-35.3 2.3-68.4 1.4l-36-.9-.9-6.3A125 125 0 0 1 71 84c3.7-37.8 13.2-49.7 45.4-56.5 12.7-2.7 33-2.4 44.5.7m6.2 99.9c9.9 1.8 10.8 3.7 11.4 23.4.5 20.3-1.4 38.5-5 46.7a36 36 0 0 1-7.8 10.4c-11.3 9.9-26.4 13.4-54.2 12.5-27-.8-30.6-3.4-36.7-26.5-4.5-16.8-6-55.1-2.5-61.6 1.3-2.3 6.4-4.5 12-5.2 7.6-1 77.4-.7 82.8.3" clip-rule="evenodd"/></svg>