<svg xmlns="http://www.w3.org/2000/svg" width="250" height="250" fill="none" viewBox="0 0 250 250"><path fill="#000" d="M73.5 35.5q14.9 0 41-4.3 26.1-4.6 36.8-9.3a44 44 0 0 1 17.5-4.9q6.8 0 20.3 7.7 14 7.5 13.9 12.7 0 3-6.1 13.2-6.2 10-6.2 50.3 0 18.3 1.3 42 1.3 23.4 1.3 36.4 0 28.7-7.4 41-7.5 12.7-11.6 12.7-2 0-3.3-2.2-1.3-2.1-3.2-9.5-7.8-27.7-10-30-2-2.4-12.3-2.4t-30.4 3a217 217 0 0 1-27.7 3.1q-7.5 0-14.6-1.2-2.6 18-7.7 18-3.2 0-7.4-7.8a37 37 0 0 1-4-16 37 37 0 0 1 2.3-14q2.7-5.8 4.2-23.7 1.7-18.2 1.7-44.4 0-26.5-3.6-44.2-3.2-17.5-6.1-21-5.2-5.4-5.2-8 0-2.4 5.2-2.4 5.1 0 21.3 5.2M161.3 188a9 9 0 0 0 3.3.7q1.5 0 2.9-1.9 1.2-2.1 2.9-20.7 1.5-18.8 1.6-51.2 0-32.7-2.3-50.6a63 63 0 0 0-4.8-22.5q-3-4.6-11.6-4.6-17.8 0-58.5 7.7a92 92 0 0 1-13.6 1.8q-3.5 0-6.4-.6a322 322 0 0 1 4.2 63q8.1.6 38.7-9 6.9-2.4 14-2.5 7.4 0 12.8 4 6 4 5.9 6 0 1.7-2 2.7-1.5 1-15.8 4-13.9 2.8-24 4.3-9.6 1.3-16.7 1.3-6.8 0-13.2-2.5a840 840 0 0 1-4.6 67q16.1.9 44.3-6a122 122 0 0 1 22.6-4q6 0 10 2.8a49 49 0 0 1 10.3 10.8"/></svg>