<svg xmlns="http://www.w3.org/2000/svg" width="250" height="250" fill="none" viewBox="0 0 250 250"><path fill="#000" fill-rule="evenodd" d="M119.4 13.5c-11.3 1.2-51 18.5-59.8 26-9.1 7.8-14 25.4-15.3 55-2.1 48.7 6.8 83.6 27.2 107.1 16.5 19 36.4 32.6 50 34.2 4.4.6 9-.2 17.3-2.8a86 86 0 0 0 48.5-35c6.3-9.8 13.8-27.7 15.9-38 2.6-12.8 3.7-57.8 2-77.6-1.8-19.1-4.7-26.2-16.4-39.5-10.4-11.9-21-19.6-28.8-21.2-7.9-1.7-10-2.6-10.9-4.9-1-3-16.5-4.7-29.7-3.3M149 33.1c25.3 5.7 40.6 22.7 46.8 52 3.4 15.8 3 47.4-.7 61.4-8 30.7-31.9 63.5-50.9 70.2-3.7 1.3-13 2.6-21.3 3-14.7.9-14.8.8-22.8-3.4a83 83 0 0 1-28.5-27.9c-9.6-17-13.4-44.6-12.3-88.7.7-29.9 2.4-38.3 9.4-47 5.2-6.5 20.6-15 34.4-18.9 11.6-3.2 33.2-3.6 45.9-.7m-47.7 83.7c-2.7 1-5.8 2.8-6.8 3.9-1.7 1.7-1.4 2.2 2 4.1 6.8 3.8 19.3 6.3 35.5 7 17 .8 19.7 0 18.4-5.1-.8-3.7-9-8.3-18.4-10.5-8.2-2-25-1.6-30.7.6" clip-rule="evenodd"/></svg>