<svg xmlns="http://www.w3.org/2000/svg" width="250" height="250" fill="none" viewBox="0 0 250 250"><g clip-path="url(#a)"><path fill="#000" fill-rule="evenodd" d="M135.2 30.1c-2.2 1-3 2.8-4.2 8.6-1.6 7.9-11 67-15 94a434 434 0 0 1-7.3 43.3c-3 11.5-7 16.6-14.3 18.5-3.6 1-7.2 1.2-20.1 1.8-40.6 1.6-50.2 3-52.3 8-1 2.2-.2 5.1 1.8 7 5.6 5.3 25.6 7.7 74.1 9.1 28.5.9 56 1.1 90 1 39.8-.2 47.2-.5 53.1-2.4 1.9-.5 2.4-.9 3.4-2.2q5-7.2-4.7-10.9c-2.8-1-8.8-2.4-14.7-3.3-18.3-2.7-71.5-9.2-75.3-9.2q-1.4 0-1.9-.6c-2.5-3 1-46.9 4.5-56.2 1.4-3.9 4.3-4.5 19.4-4.1 16.7.4 22 0 29.8-1.6 14.1-3 21.3-9.8 15.8-14.7-3.1-2.7-9.6-4.3-27.5-6.6a313 313 0 0 1-31.5-5q-.9-.4-1.8-2.3c-2-4.4-2.5-10.4-2.9-33.8-.3-24-.8-29.6-2.9-33.6-1-2-2-3-4.3-3.8q-7.7-2.8-11.2-1" clip-rule="evenodd"/></g><defs><clipPath id="a"><path fill="#fff" d="M0 0h250v250H0z"/></clipPath></defs></svg>