<svg xmlns="http://www.w3.org/2000/svg" width="250" height="250" fill="none" viewBox="0 0 250 250"><path fill="#000" fill-rule="evenodd" d="M153 9.7A50.2 50.2 0 0 0 127 21q-9.5 7.3-13.7 13.9c-2.7 4.2-3.3 6.6-3.3 14.8 0 6.8.3 8.7 1.8 11.6a38 38 0 0 0 18 13.3c7.6 2.2 7.9 2.4 8.7 3.8q.8 1.6 6.3 4.3c4 2 6 3.3 8.5 5.9q3.6 3.5 3.2 5.1 0 .8-1.3 1-2.1.6-3.6 3.8c-1.5 3.2-5.6 6.9-13 12a38 38 0 0 0-9.8 8.1c-5.3 7.1-6.6 15.3-8.1 51.3a900 900 0 0 1-2.4 42c-.4 2.3-1 3.3-2.3 4-2.3 1.2-4 1.3-19.3 1.1-21.6-.2-44-.1-44.7 0q-2.2.8-3 3.5-1 3.4 0 5.7l.6 1 1.7.3c4.4.4 114.9 1.3 134.4 1.1 20.7-.2 24.4-.8 26-3.8 2-3.6.8-5.2-4.6-6-3.8-.6-8.7-.8-32.9-1-14.2-.1-27.8-.4-30.3-.5-7.1-.5-10-1.3-11-3a9 9 0 0 1-.3-5.8c.8-2.6 1.1-8 1.3-23.2 0-11 .3-14.3 1.1-17.6.7-2.8 1.3-3.6 2.9-4.1 3.7-1 14.2-2 28.5-2.4 12.8-.4 18.7-1 22.2-2 4-1.4 4.9-3 3.4-6-1.2-2.5-3.1-4-6.7-5-3.2-.8-6.2-1-13.2-1-6.6.2-9.3.5-18.5 1.7-5.8.8-14 1-15.5.4-4.3-1.5-4.4-9.3-.3-18.3q3.4-7 8.9-11.4c5.3-4.1 7-5.4 9.6-7.8 4.8-4.3 8.6-8.9 10.4-12.7a21 21 0 0 0 .6-16c-1-2.8-2.4-4.5-5.6-7.3a43 43 0 0 0-17.7-9.2l-3.6-.6c-3-.5-9-4-12.4-7.2-3.1-3-4.3-7-3.6-12.9q.8-7.2 3.8-10c3-2.5 11-7 17.2-9.3 4.5-1.8 7.2-2.5 10.6-2.8 5.3-.4 5.8-1 5.9-6.6q0-3.5-.2-4.8-.7-2.3-2.8-2.6-3.4-.4-6-.1" clip-rule="evenodd"/></svg>