<svg xmlns="http://www.w3.org/2000/svg" width="250" height="250" fill="none" viewBox="0 0 250 250"><path fill="#000" d="M126.1 192.2a2455 2455 0 0 0 53.8-6.5q18.6-2.5 22.3-2.5 11.5 0 20.5 5.7 9.3 5.6 9.3 9.8 0 5.3-11.8 5.3-4.2 0-10.2-.8-15.5-2.2-38-2.2a598 598 0 0 0-126 13.2q-4.5 1.8-9 1.8-4.2 0-11.7-4.5-7.3-4.3-7.3-6.5t7.5-2.3q12.5 0 86.4-8.8l1.2-82.2q.4-28.3-.7-44.6-1.3-16.3-5.5-21.3t-4.3-8.3q0-3.5 4.3-3.5 4.5 0 15.5 5.5 11.2 5.3 11.2 11 0 3-2.5 9-2.3 5.9-3.2 49 18.8-3.5 38-11a24 24 0 0 1 20.8 1.2q6.8 2.7 6.8 5.2 0 2.3-4 4t-22 5a163 163 0 0 1-26.9 3.3 58 58 0 0 1-12.7-1z"/></svg>