<svg xmlns="http://www.w3.org/2000/svg" width="250" height="250" fill="none" viewBox="0 0 250 250"><path fill="#000" fill-rule="evenodd" d="M77.2 58c-3.5 3.3-3.6 4.4-1 8.5 8 13 49 29.5 63.4 25.7 20.4-5.5 14.5-23.6-10.8-33.7-14.5-5.7-46-6-51.6-.6m-61 36.2c-1.7 6 5 17.7 21.8 38.5 28.6 35.1 47.7 48.2 86.1 58.7 32.5 8.8 41.9 7.9 71-7.3 35-18.1 42.4-25 39.2-36-1.8-6.2-16.6-12.8-29-12.8-6.4 0-18.9 3.2-28.5 7.3-9.5 4-22 7.3-28 7.5-20 .5-76-24.3-101.3-44.8-17.2-14-29.2-18.2-31.2-11" clip-rule="evenodd"/></svg>