<svg xmlns="http://www.w3.org/2000/svg" width="250" height="250" fill="none" viewBox="0 0 250 250"><g clip-path="url(#a)"><path fill="#000" fill-rule="evenodd" d="M101.3 10q-5.8 1-5.4 2.9c.5 1.7 4.3 2.9 10.1 3.2a210.8 210.8 0 0 1 51.3 12.6 45 45 0 0 1 18.3 23.5c1.1 3.7 1.5 5.7 1.5 9.1 0 4.6-1.2 8.7-3 10.2-2.4 1.8-10.8-.8-17.1-5.4-2.4-1.7-4.7-3-11.7-6.2q-5-2.4-6-5.4c-.8-3.5-1.8-4-6.4-4.5a30 30 0 0 0-9.1.5c-1.6.6-2 2.8-.8 5 1 2 6.5 7.2 11.3 10.6 13.6 9.9 30.7 27 34.7 34.7 2.7 5.4 3.2 15.9 1.6 32.6-.9 8.3-1.9 12-4.2 15.6-.7 1-4.8 5.5-9.3 10-9.3 9.4-12.2 12.8-12.9 15.1q-.9 3-5 7c-4.5 4.3-10.6 15.6-9.9 18.4q.1.8 1.4.7 2.6 0 7.3-3.1c5-3.4 9-7 18.2-16.1 9-9 12.2-11.9 12.7-11.4.8.8 1 6.4 1.2 27.8.2 18.8.3 22.8.7 24.9 1 5 2.4 6.9 5.5 6.9 2.5 0 3-.8 3.7-5.7.4-3.2.8-17 .9-29.3 0-18.2 1-29.1 2.5-29.7 1.2-.5 8.3 5.5 20.3 17.2 13 12.7 22.1 20.2 24 20q2.8-.7-1-7.3a210 210 0 0 0-27.8-32.3c-11.9-12.2-13-13.7-14.7-17.6-.8-1.7-.8-2-.8-7.6 0-5.4.2-6.7 1.6-16.7 3-20.9 4.3-27.8 6.2-31.4.8-1.7 1.4-2.2 3-2.6a3 3 0 0 0 2.2-2.9c0-2.8 14-16.7 17.9-17.8q2-.5 4-4.5c2-4 3-7.8 2.4-9.4-.3-.7-2.3-1.6-4-1.8-3-.4-8 1.5-11.7 4.4-1.2.8-3.6 3-5.5 4.9a34 34 0 0 1-7.6 6.2c-1.5.5-2.9-2.7-4.6-11.2a72 72 0 0 0-4.6-15.2q-3-6-13-15.7-9.8-9.6-11.8-8.5-1.2.8-3.8-.9c-.7-.5-2.2-1-3.2-1.3a171 171 0 0 0-17.4-2.1c-6.6-.5-29.7-.9-32.2-.5M47.8 38.1c-.5 1.2 1.5 3.3 13 14.1 11.7 11 17.8 17.9 20 22.3.8 1.5 1 2.1 1 3.9-.2 7-5 17-8.9 18.1-3 .8-6.6 4.3-13 12.6-4.6 6-5 6.5-13 12.2a87 87 0 0 0-12.3 10.3c-8.1 7.8-12.8 14.4-11.4 16.1.7 1 4.8.2 8.5-1.5 5.4-2.5 10.8-6.8 29-23.3l9.2-8.2c3-2.6 7.5-6 9.5-7 1.5-.7 1.9-.8 2.6-.5 3.3 1.4 3.2 11.6-.3 33-1.8 11-3 22-4.2 35-.8 9.5-2.8 25.1-5 40.1-4.3 27.6-4.3 27.3.3 26.9 2.9-.3 3.5-1.7 4-9 .4-4.1 1-6.2 2.5-7.8 3.7-4.3 8.5-32 12.4-72.6 2-20.3 5-42.4 8.5-61.9 2.2-12.4 2.3-16.1.3-19.9A119 119 0 0 0 78.3 51c-6.2-4.6-9.4-7.1-11-8.5-1.8-1.8-2.2-2-5.2-2.8-5.7-1.7-14-2.5-14.3-1.5" clip-rule="evenodd"/></g><defs><clipPath id="a"><path fill="#fff" d="M0 0h250v250H0z"/></clipPath></defs></svg>