<svg xmlns="http://www.w3.org/2000/svg" width="250" height="250" fill="none" viewBox="0 0 250 250"><path fill="#000" d="M142 107.3q17.7 20.7 30.8 32 13.4 11.4 26.3 17.4 13 5.8 34.1 11.8 4.8 1.4 4.8 3.6 0 1.5-2 2.2-1.5.5-15.4 1.9t-21.7 1.4-12.5-2.9q-4.5-3-16.2-18-11.4-15-28.2-40.3.6 44.6 1.2 64.4l.5 19.5q0 5.7-1.4 14-1.5 8.4-3.6 11-2 2.7-3.3 2.7-2.7 0-5.8-5.8t-3-17.6q0-6 .9-12.5 3.3-28 4.5-72-11 23-22.9 37.3A100 100 0 0 1 85.5 179a53 53 0 0 1-13.9 7.2q-2.1 0-2.1-1.7t2.1-3.8q18.6-17.4 30.6-34.3t26.2-44.5q-7 1.5-11.7 3.1a57 57 0 0 1-16.2 2.7q-7.4 0-12.6-2.2-5.3-2.2-5.3-3.9 0-1.9 5.7-2.4 12.7-1.2 44.2-8.4 0-37.8-.5-47.5-.2-9.6-2.4-11.8-3.5-4.5-3.5-7.5t3.8-3.1q4 0 12.9 4.6 8.8 4.3 8.8 10.1a19 19 0 0 1-1.4 6.3q-5.8 14-7.7 46.2 15.6-4.3 23.4-6.7 8-2.7 14.1-2.7 6.2 0 12 2.7t5.7 5q0 4.2-16.5 6.6-16.4 2.1-39.2 6.2zm-86.6-2.4q-14.6 19.7-27.5 29.4-12.6 9.4-15.5 9.4-1.5 0-1.4-1.2 0-1.5 2.4-3.9 28.2-30 43.2-60t13.1-35.2l-.2-2.2q0-4 3.8-4 4 0 11 5.2 6.9 5.4 6.9 8.5t-2.1 4.8q-4.6 3.8-11.7 15.2-12.9 21-17.5 27.2a30 30 0 0 1 6.7 7q2.4 3.4 2.4 7.5t-.7 10-1.7 25.6q-.7 19.4-.7 33.3 0 13.7-2 20.5a37 37 0 0 1-3.3 8.9 5 5 0 0 1-4 2.4q-2.6 0-5-6.3a34 34 0 0 1-.3-23.8q2.4-6 4.1-25.6t1.7-32.5q0-12.8-1.7-20.2"/></svg>