<svg xmlns="http://www.w3.org/2000/svg" width="250" height="250" fill="none" viewBox="0 0 250 250"><path fill="#000" fill-rule="evenodd" d="M147.7 5.3c-3.2 1.3-5.2 8.7-8.2 30.6-2.8 19.8-3.8 21-11.2 13s-11.2-11.3-13.7-12q-5.5-1.4-6 6c-.3 6.3 3.8 18.3 13.8 40 10 21.8 11.5 26.8 11.4 38.3 0 12-2.9 20.4-14.3 43.2-9.4 18.7-13.7 25.2-16 23.8-3-1.9.6-35.5 7.6-70 1.9-9.3 3.4-18.4 3.4-20.3 0-4.6-2.2-8.5-9.6-17-10.3-11.8-10-10.2-10-37.2 0-24.6-.5-28.3-4.4-29.5-6.2-2-7.8 3.5-14 45.8-1.7 11.4-5.3 33.3-8 48.7-7.6 43.4-8.2 53.5-3.4 56.7 2.2 1.4 2.6 1.4 5-.2 1.3-.9 3.9-4.5 5.6-8 2.5-5 3.7-6.5 5.4-6.5 1.2 0 2.5.7 2.8 1.6 1 2.8.6 10.7-1 16.9-2.1 8.2-3 46.6-1.5 60.5q1.8 14.8 4.1 15c1.2 0 7.7-7.6 9.5-11.1 2.4-4.6 23-35.3 28-42 5-6.4 10-11 12-11 3.6 0 4.7 4.7 5.6 22.7 1 21.7 2.6 28.5 6.3 27 2.7-1 4.4-6.4 6-19.1 1.7-12.9 3.3-16.5 7-16.5 2.7 0 4.8 2.5 8.9 10.5 2.8 5.6 7 10 8.6 9 3-1.8-.4-16-7.5-31.8l-8.5-18.9c-7.2-16.3-9.1-29.5-5-34.7 4.6-5.7 5.2-7.1 6-14.4.5-4.1 1.5-8.8 2.4-10.4s3-5.8 5-9.3c8.8-16.2 17.7-43.8 17.7-55.2 0-12.2-4.5-11.9-17.1 1.2-4.7 5-8.9 8.7-9.2 8.4s-.3-6 0-12.8c.5-10.9.3-13-1.7-19-3-9-7.6-13.7-11.8-12" clip-rule="evenodd"/></svg>