<svg xmlns="http://www.w3.org/2000/svg" width="250" height="250" fill="none" viewBox="0 0 250 250"><g clip-path="url(#a)"><path fill="#000" fill-rule="evenodd" d="M168.6 12.4q-1 .6-1.6 1.3c-1.6 2.2-2.1 8.3-2.2 24.8 0 14.2-.4 27-.9 29.5s-1.8 5-3 5.7a52.8 52.8 0 0 1-12.6.5q-10.4-1.6-14.9-10.7a55 55 0 0 1-4.6-18.7c-1-7.4-1.7-11.3-3-15q-2.5-7-6-6.9-2.4 0-4.3 2c-1.4 1.4-1.9 4.3-1.9 11.1 0 19 4.8 46 9 50 2.2 2.2 10.6 4.1 24 5.5 9.3 1 14.7 2.6 17.3 5 1.1 1 1.3 1.4 1.3 2.5q.2 5.8-17.8 13.4c-12.2 5.1-15.4 7.6-18.6 14.3a79 79 0 0 0-4.6 13.2c-2.1 8.8-4 24.4-5.1 43.2a416 416 0 0 0 0 35.7q1 9.6 2.6 10.5c.9.3 8.4-.8 8.9-1.4q.4-.6 1-2.3c1.1-4.7 1.6-11 1.8-25.5.1-6 .3-13.6.5-16.7 1.7-32.8 8.7-53.8 19.6-58.9 2.3-1 6.2-1.3 7.5-.4 3.2 2 3.5 6.2 3.9 56 .1 20 .4 38.2.6 40.1.7 8.5 2 12.4 4.4 13.6a9 9 0 0 0 4.9.7q3.5-1 5-8.6c1.7-8.1 2.2-18.1 2.6-54.8.1-15.4.3-28.8.4-29.7l.5-7.3c.3-6 1-11.9 1.5-13.1.4-1 1.1-1 3.1 0 4.2 2 12.4 8.5 16 12.3 3.1 3.4 4.6 7.6 5.6 15.9.6 5.6 1 10.2 2 29.1 2.3 40.7 3.2 49 6 52 1 1 1 1.1 3 1 7.1 0 9.5-6.5 10.4-28.3 1.6-40.9-6.6-75-21-87.4a53 53 0 0 0-21.1-10.4c-3.4-.8-4.9-1.4-6.4-2.7-2-1.7-3.3-5.7-3-9.4s1.2-4.2 9-4.5c6.5-.3 10.4-.9 15.3-2.2 10.7-2.8 18.6-7.6 20.8-12.7 4-9.1 4-34.1 0-44.4a9 9 0 0 0-3.4-4.5c-2.6-1.7-4.1-1.1-6 2.4a66 66 0 0 0-5.1 25.3c-.3 5.7-.8 7.9-2.3 11q-3.8 8-17.2 7.5c-7.6-.2-8.2-1.4-8.2-18.3q0-25.3-2-33-1.6-6.1-5.6-7.5c-1.8-.5-5-.4-6.1.2M38.2 24c-1.8.3-5.1 1.5-6.4 2.3-3.6 2.2-5.9 5.4-5.5 7.6q.9 3.7 7.5 5.2c1.5.4 4.8.6 9 .8 7.7.2 8.5.4 9.1 2.3.7 2.1-.4 6-5.8 20a78 78 0 0 0-5.6 21.3c-2 15-2.9 46-2.6 89.4.3 39.8 1.1 59.8 2.5 61.2 1.6 1.5 7-1.6 8.8-5.2.8-1.6 1.7-5.4 2.3-9.5 1.1-8.9 1.4-16.4 1.7-54 .2-32.9.5-43.9 1.2-56.3 1.6-27.6 4.9-43.9 11-54 1.9-3.4 4.5-6.8 5.4-7.2 1.2-.5 2.3.2 4.4 2.8 4.2 5.2 5 9 5.2 29.8.2 13-.1 29-1 60.5-1 36.7-1.2 43.9-1.2 61.2 0 18 .1 21.3 1 25.7.5 2 1.5 3.6 2.6 3.7 1.3.2 3.3-.5 4.5-1.6 4.5-4.2 6.8-16.5 8-44.7.9-19.8.9-106.5 0-118.9-.8-10.9-1.8-15.9-4.1-19.8a52 52 0 0 0-7.3-8.7c-5.2-4.6-9.7-6.5-22.2-9.2q-13.5-3-16.7-4.1-2.8-1.2-5.8-.6" clip-rule="evenodd"/></g><defs><clipPath id="a"><path fill="#fff" d="M0 0h250v250H0z"/></clipPath></defs></svg>